<?xml version="1.0"?>
<svg xmlns="http://www.w3.org/2000/svg" xmlns:xlink="http://www.w3.org/1999/xlink" version="1.1" id="Capa_1" x="0px" y="0px" viewBox="0 0 512 512" style="enable-background:new 0 0 512 512;" xml:space="preserve" width="512px" height="512px" class=""><g><path style="fill:#FFADB9" d="M318.841,402.801h-30.905v46.358h30.905c12.801,0,23.179-10.378,23.179-23.179  S331.642,402.801,318.841,402.801z" data-original="#D63D76" class="" data-old_color="#ffadb9"/><path style="fill:#FFADB9" d="M425.98,169.98C425.98,76.103,349.877,0,256,0S86.02,76.103,86.02,169.98  c0,86.014,63.891,157.093,146.801,168.401v64.42h-39.662c-12.801,0-23.179,10.378-23.179,23.179s10.378,23.179,23.179,23.179h39.662  v39.662C232.821,501.622,243.199,512,256,512c12.801,0,23.179-10.378,23.179-23.179v-39.662h8.757  c12.801,0,23.179-10.378,23.179-23.179s-10.378-23.179-23.179-23.179h-8.757v-64.42C362.089,327.073,425.98,255.994,425.98,169.98z   M256,293.602c-68.274,0-123.622-55.348-123.622-123.622S187.726,46.358,256,46.358s123.622,55.348,123.622,123.622  S324.274,293.602,256,293.602z" data-original="#FF4181" class="active-path" data-old_color="#ffadb9"/></g> </svg>
